<svg xmlns="http://www.w3.org/2000/svg" viewBox="0 0 200 200" width="400" height="400">
  <defs>
    <radialGradient id="boss-emblem-glow" cx="50%" cy="50%" r="50%">
      <stop offset="0%" stop-color="#ff9069" stop-opacity="0.55" />
      <stop offset="50%" stop-color="#ff7948" stop-opacity="0.25" />
      <stop offset="100%" stop-color="#591800" stop-opacity="0" />
    </radialGradient>
    <linearGradient id="boss-gold" x1="0%" y1="0%" x2="0%" y2="100%">
      <stop offset="0%" stop-color="#ffd194" />
      <stop offset="40%" stop-color="#ff9069" />
      <stop offset="100%" stop-color="#ff5a1f" />
    </linearGradient>
    <linearGradient id="boss-shield-fill" x1="0%" y1="0%" x2="0%" y2="100%">
      <stop offset="0%" stop-color="#ffb27a" />
      <stop offset="60%" stop-color="#ff9069" />
      <stop offset="100%" stop-color="#c04a1a" />
    </linearGradient>
    <filter id="boss-emblem-blur" x="-50%" y="-50%" width="200%" height="200%">
      <feGaussianBlur stdDeviation="1.5" result="b" />
      <feMerge>
        <feMergeNode in="b" />
        <feMergeNode in="SourceGraphic" />
      </feMerge>
    </filter>
  </defs>

  <rect width="200" height="200" fill="#0e0e11" />
  <circle cx="100" cy="100" r="95" fill="url(#boss-emblem-glow)" />

  <g transform="translate(100 100)" filter="url(#boss-emblem-blur)">
    <polygon points="0,-82 71,-41 71,41 0,82 -71,41 -71,-41" fill="none" stroke="#ff9069" stroke-opacity="0.35" stroke-width="1.2" />
    <polygon points="0,-72 62,-36 62,36 0,72 -62,36 -62,-36" fill="rgba(255, 144, 105, 0.06)" stroke="#ff9069" stroke-opacity="0.55" stroke-width="1.2" />

    <path d="M -42,-22 L -32,-46 L -22,-26 L -12,-52 L 0,-30 L 12,-52 L 22,-26 L 32,-46 L 42,-22 L 38,-14 L -38,-14 Z" fill="url(#boss-gold)" stroke="#591800" stroke-width="1.2" stroke-linejoin="round" />

    <circle cx="-32" cy="-46" r="2.5" fill="#fff5e6" />
    <circle cx="-12" cy="-52" r="2.8" fill="#fff5e6" />
    <circle cx="0" cy="-30" r="3.2" fill="#fff5e6" />
    <circle cx="12" cy="-52" r="2.8" fill="#fff5e6" />
    <circle cx="32" cy="-46" r="2.5" fill="#fff5e6" />

    <rect x="-38" y="-14" width="76" height="6" fill="url(#boss-gold)" stroke="#591800" stroke-width="0.8" />
    <circle cx="-22" cy="-11" r="1.5" fill="#fff5e6" />
    <circle cx="0" cy="-11" r="1.8" fill="#fff5e6" />
    <circle cx="22" cy="-11" r="1.5" fill="#fff5e6" />

    <path d="M -36,-4 L 36,-4 L 36,22 Q 36,42 18,55 L 0,64 L -18,55 Q -36,42 -36,22 Z" fill="url(#boss-shield-fill)" stroke="#591800" stroke-width="1.6" stroke-linejoin="round" />
    <path d="M -30,-1 L 30,-1 L 30,22 Q 30,38 16,49 L 0,57 L -16,49 Q -30,38 -30,22 Z" fill="none" stroke="rgba(255, 245, 230, 0.4)" stroke-width="0.8" />

    <text x="0" y="38" text-anchor="middle" font-size="42" font-weight="900" fill="#3a0d00" font-family="Manrope, Arial, sans-serif" style="letter-spacing: -0.02em">B</text>
    <text x="0" y="58" text-anchor="middle" font-size="8" font-weight="700" fill="#3a0d00" font-family="Inter, Arial, sans-serif" style="letter-spacing: 0.3em">TIER · I</text>

    <path d="M -82,0 L -68,-6 L -72,0 L -68,6 Z" fill="#ff9069" opacity="0.7" />
    <path d="M 82,0 L 68,-6 L 72,0 L 68,6 Z" fill="#ff9069" opacity="0.7" />
  </g>

  <g stroke="#ff9069" stroke-width="1.5" fill="none" opacity="0.55">
    <path d="M 18,18 L 8,18 L 8,28" />
    <path d="M 182,18 L 192,18 L 192,28" />
    <path d="M 18,182 L 8,182 L 8,172" />
    <path d="M 182,182 L 192,182 L 192,172" />
  </g>
</svg>
